<svg xmlns="http://www.w3.org/2000/svg" version="1.1" xmlns:xlink="http://www.w3.org/1999/xlink" xmlns:svgjs="http://svgjs.dev/svgjs" width="1000" height="1125" viewBox="0 0 1000 1125"><g transform="matrix(1,0,0,1,1.7053025658242404e-13,0)"><svg viewBox="0 0 320 360" data-background-color="#ffffff" preserveAspectRatio="xMidYMid meet" height="1125" width="1000" xmlns="http://www.w3.org/2000/svg" xmlns:xlink="http://www.w3.org/1999/xlink"><g id="tight-bounds" transform="matrix(1,0,0,1,0,0)"><svg viewBox="0 0 320 360" height="360" width="320"><g><svg></svg></g><g><svg viewBox="0 0 320 360" height="360" width="320"><g><path xmlns="http://www.w3.org/2000/svg" d="M20.961 227.22l3.726 4.658-1.863-6.056c-0.466-2.795-3.726 0.466-1.863 1.398M25.153 224.425c1.397 2.329 2.795 4.658 2.795 6.987 0 3.261 2.795 4.658 5.123 5.589-3.261-3.726-5.124-13.974-7.918-12.576M204.017 26.929c7.918 0 15.371-0.932 23.756 0.931 20.495 5.124 37.729 15.371 49.374 29.811l32.606 52.169c1.397 13.042 4.192 27.482 3.726 43.319 3.261 0 2.795-4.658 6.521-5.59-3.726 9.316-5.59 20.961-6.521 34.469-2.329-7.453 0-18.632 0.466-24.687-3.261 5.124-5.124 1.397-5.124-0.932 0.466-3.726-1.397-3.261-2.795-4.658-5.124-4.658-8.384-9.782-12.11-17.7 2.329-6.055 2.795-14.905-4.658-19.563-2.329-1.397-5.124-3.726-6.521-7.453-1.863-5.124-5.124-11.179-4.193-19.097 0.466-2.329-6.987 5.124-11.179 1.863-18.166-12.576-36.332-27.016-58.224-39.127-11.645 0-20.029-4.192-24.221-9.316-3.726-4.658-0.932-10.713 4.658-11.179 3.261 0 6.987-0.932 9.782 0.932 0.466-1.863 2.329-4.192 4.657-4.192M157.904 16.215l0.932 0.466c4.658 0.932 6.987 7.453 12.11 5.124 0 3.261 0.466 6.521-0.466 8.85-1.397 3.726-5.59 3.726-8.85 3.726-31.208-1.863-49.374 11.179-68.471 22.358-5.124 3.261-10.713 5.59-14.906 9.782-20.029 18.632-41.921 35.866-47.045 70.335l-4.192 38.195c-0.466 4.192-5.124 8.384-4.192 13.508l3.26 22.824c-3.261-3.261-5.124 0.932-4.192 2.795 0.466 1.397 2.329 6.055 5.124 1.863 3.726 6.987 7.453 20.495 12.576 26.55 15.837 18.632 36.332 35.4 53.101 52.169 4.192-0.932 7.453-0.932 8.384-3.727 1.397 2.795-1.397 5.59-3.726 6.056 7.453 4.658 15.837 8.85 27.016 9.781 14.44 0.932 27.948 3.261 40.524 6.522 6.521-1.863 13.042-2.795 20.029-3.261 2.329 0 3.726-3.726 6.521-4.658l0.466-4.658c2.795 4.192 2.329-1.397 0.466-4.192 3.261 2.795 4.192 5.124 5.589 6.987 0-1.397 3.726-6.521 3.727-0.466l0.931-6.055c1.397-0.932 1.863 5.124 3.261 0.931 1.397-4.192 4.192-0.932 6.987-2.329-0.932 1.863-0.466 5.59 2.794 3.261l3.727-3.261c2.329 5.59 6.055 3.261 7.918 2.329 20.495-13.042 40.99-28.413 60.553-43.784l-0.466 6.055 2.329-7.453c2.329 2.329 4.192 0.466 5.124-0.931 2.795-4.658 6.521-9.316 12.577-13.508-7.453 20.029-16.303 35.866-27.482 48.908l-4.658 5.59c0 3.261-0.932 7.453-4.658 7.918-1.863 0.466-5.59-0.932-8.384 1.863-1.397 1.863 3.261 5.59-0.466 2.795-3.261-2.329-6.521 0-10.248 0.932-2.795 0.932 1.863 3.726 2.795 5.589 0.932 1.863 1.863 3.726 1.398 6.056l-5.124-5.59c-6.055 3.261-9.782 9.316-14.906 13.974-2.329 1.863-1.397 5.124-1.397 7.918-3.261 0-6.987-0.932-8.85 0.932-1.397 1.863-0.932 4.658-0.932 7.453-4.658-0.466-5.124-7.453-9.315-6.056-4.192 0.932-8.85 1.397-12.577 3.727 2.795 5.59-4.658 2.329-3.726 3.26-6.987-4.192-13.042-7.453-20.495-4.658-15.837-5.124-35.4-2.795-49.84-0.931 0-2.329 0.466-4.658-0.466-5.124-0.932 2.329-3.726 1.397-3.26 1.397-8.85-6.055-17.7-9.782-27.016-14.905-8.384 0.932-16.303-3.261-18.632-5.59-6.521-6.055-13.974-2.795-20.029-4.192-13.042-3.261-17.7-16.769-19.098-26.084-0.932-4.658-4.658-6.521-6.055-6.056-6.055-19.563-15.371-37.263-22.824-55.429-1.863-4.658-1.397-9.316-1.397-14.44 2.329 0.932 4.658 0.466 4.192-2.794-2.329-15.371-7.918-27.016-13.974-38.195 3.261-15.837 3.726-34.469 11.179-48.443 6.521-12.576 18.632-19.098 27.016-29.811 2.795-3.726 2.795-8.85 5.59-12.11 9.316-9.316 18.632-19.098 28.879-27.482 4.658-3.726 10.247 0 17.234-1.397 2.329-8.384 11.645-15.837 20.495-13.508 3.726 0.932 11.179-8.85 13.508-9.782 3.726-1.397 1.863 3.726 1.863 6.987 8.85-6.987 20.961-10.713 32.14-14.906" fill="#1ebbd7" fill-rule="nonzero" stroke="none" stroke-width="1" stroke-linecap="butt" stroke-linejoin="miter" stroke-miterlimit="10" stroke-dasharray="" stroke-dashoffset="0" font-family="none" font-weight="none" font-size="none" text-anchor="none" style="mix-blend-mode: normal" data-fill-palette-color="tertiary"></path></g><g transform="matrix(1,0,0,1,80.76029966524587,90)"><svg viewBox="0 0 158.47940066950827 180" height="180" width="158.47940066950827"><g><svg viewBox="0 0 158.47940066950827 180" height="180" width="158.47940066950827"><g><svg viewBox="0 0 192 218.07250566318814" height="180" width="158.47940066950827"><g transform="matrix(1,0,0,1,0,129.96153026433413)"><svg viewBox="0 0 192 88.11097539885401" height="88.11097539885401" width="192"><g id="textblocktransform"><svg viewBox="0 0 192 88.11097539885401" height="88.11097539885401" width="192" id="textblock"><g><svg viewBox="0 0 192 56.13992395437263" height="56.13992395437263" width="192"><g transform="matrix(1,0,0,1,0,0)"><svg width="192" viewBox="3 -37.70000076293945 131.49000549316406 38.45000076293945" height="56.13992395437263" data-palette-color="#1ebbd7"><path d="M3-34.55L20.15-34.55 19.5-29.8 9.35-29.8 9.35-19.9 18.2-19.9 18.2-15.2 9.35-15.2 9.35-4.8 20.15-4.8 20.15 0 3 0 3-34.55ZM36.85-27.15Q39.7-27.15 41.35-25.1 43-23.05 43-19.6L43-19.6 43 0 36.85 0 36.85-18.9Q36.85-20.8 36.32-21.63 35.8-22.45 34.8-22.45L34.8-22.45Q32.7-22.45 30.65-18.5L30.65-18.5 30.65 0 24.5 0 24.5-26.45 29.85-26.45 30.3-23Q31.65-25.1 33.17-26.13 34.7-27.15 36.85-27.15L36.85-27.15ZM61.5-37.7L67.65-37.05 67.65 0 62.2 0 61.9-3.05Q59.55 0.75 55.85 0.75L55.85 0.75Q51.75 0.75 49.57-2.93 47.4-6.6 47.4-13.2L47.4-13.2Q47.4-17.4 48.52-20.58 49.65-23.75 51.65-25.45 53.65-27.15 56.25-27.15L56.25-27.15Q59.45-27.15 61.5-24.5L61.5-24.5 61.5-37.7ZM57.6-3.9Q58.75-3.9 59.67-4.7 60.6-5.5 61.5-7L61.5-7 61.5-19.85Q59.9-22.55 57.85-22.55L57.85-22.55Q53.8-22.55 53.8-13.25L53.8-13.25Q53.8-8.2 54.8-6.05 55.8-3.9 57.6-3.9L57.6-3.9ZM92.19-13.85Q92.19-13.4 92.04-11.3L92.04-11.3 78.39-11.3Q78.59-7.2 79.82-5.58 81.04-3.95 83.29-3.95L83.29-3.95Q84.84-3.95 86.09-4.48 87.34-5 88.79-6.15L88.79-6.15 91.34-2.65Q87.84 0.75 82.94 0.75L82.94 0.75Q77.74 0.75 74.97-2.85 72.19-6.45 72.19-13L72.19-13Q72.19-19.55 74.84-23.35 77.49-27.15 82.34-27.15L82.34-27.15Q86.99-27.15 89.59-23.78 92.19-20.4 92.19-13.85L92.19-13.85ZM86.19-15.3L86.19-15.65Q86.19-19.4 85.29-21.13 84.39-22.85 82.39-22.85L82.39-22.85Q80.54-22.85 79.57-21.18 78.59-19.5 78.39-15.3L78.39-15.3 86.19-15.3ZM108.64-27.15Q112.49-27.15 114.54-23.65 116.59-20.15 116.59-13.25L116.59-13.25Q116.59-6.75 114.29-3 111.99 0.75 107.99 0.75L107.99 0.75Q106.24 0.75 104.79-0.13 103.34-1 102.29-2.55L102.29-2.55 101.94 0 96.49 0 96.49-37 102.64-37.65 102.64-23.6Q103.69-25.3 105.22-26.23 106.74-27.15 108.64-27.15L108.64-27.15ZM106.34-3.9Q108.19-3.9 109.22-6 110.24-8.1 110.24-13.25L110.24-13.25Q110.24-18.6 109.32-20.58 108.39-22.55 106.69-22.55L106.69-22.55Q105.54-22.55 104.49-21.6 103.44-20.65 102.64-19.1L102.64-19.1 102.64-6.7Q103.29-5.45 104.27-4.67 105.24-3.9 106.34-3.9L106.34-3.9ZM132.34-5L134.49-1.2Q132.04 0.75 128.74 0.75L128.74 0.75Q125.29 0.75 123.49-1.23 121.69-3.2 121.69-6.6L121.69-6.6 121.69-22 118.59-22 118.59-26.45 121.69-26.45 121.69-32.3 127.84-33.05 127.84-26.45 132.84-26.45 132.24-22 127.84-22 127.84-6.6Q127.84-4.2 129.89-4.2L129.89-4.2Q130.54-4.2 131.04-4.38 131.54-4.55 132.34-5L132.34-5Z" opacity="1" transform="matrix(1,0,0,1,0,0)" fill="#1ebbd7" class="wordmark-text-0" data-fill-palette-color="primary" id="text-0"></path></svg></g></svg></g><g transform="matrix(1,0,0,1,0,64.3320862174905)"><svg viewBox="0 0 192 23.778889181363517" height="23.778889181363517" width="192"><g transform="matrix(1,0,0,1,0,0)"><svg width="192" viewBox="2.5999999046325684 -37.099998474121094 379.8699951171875 47.04999923706055" height="23.778889181363517" data-palette-color="#4b91f1"><path d="M30.35-6.7L30.35-17.5 33.9-17.5 33.9 0 30.65 0 30.65-2.95Q28.65-1.35 25.98-0.53 23.3 0.3 20.25 0.3L20.25 0.3Q15.55 0.3 11.53-1.8 7.5-3.9 5.05-7.9 2.6-11.9 2.6-17.4L2.6-17.4Q2.6-22.5 5-26.58 7.4-30.65 11.6-32.98 15.8-35.3 21.1-35.3L21.1-35.3Q25.1-35.3 28.45-34.02 31.8-32.75 34.1-30.25L34.1-30.25 31.8-27.9Q27.65-32 21.25-32L21.25-32Q17-32 13.58-30.13 10.15-28.25 8.2-24.9 6.25-21.55 6.25-17.4L6.25-17.4Q6.25-12.95 8.22-9.68 10.2-6.4 13.48-4.67 16.75-2.95 20.5-2.95L20.5-2.95Q23.25-2.95 25.83-3.88 28.4-4.8 30.35-6.7L30.35-6.7ZM54.35 0.25Q50.55 0.25 47.5-1.48 44.45-3.2 42.7-6.25 40.95-9.3 40.95-13.15L40.95-13.15Q40.95-17 42.7-20.05 44.45-23.1 47.5-24.8 50.55-26.5 54.35-26.5L54.35-26.5Q58.15-26.5 61.2-24.8 64.25-23.1 65.97-20.05 67.7-17 67.7-13.15L67.7-13.15Q67.7-9.3 65.97-6.25 64.25-3.2 61.2-1.48 58.15 0.25 54.35 0.25L54.35 0.25ZM54.35-2.9Q57.15-2.9 59.37-4.17 61.6-5.45 62.85-7.8 64.1-10.15 64.1-13.15L64.1-13.15Q64.1-16.15 62.85-18.5 61.6-20.85 59.37-22.13 57.15-23.4 54.35-23.4L54.35-23.4Q51.55-23.4 49.32-22.13 47.1-20.85 45.82-18.5 44.55-16.15 44.55-13.15L44.55-13.15Q44.55-10.15 45.82-7.8 47.1-5.45 49.32-4.17 51.55-2.9 54.35-2.9L54.35-2.9ZM85.7 0.25Q81.9 0.25 78.84-1.48 75.8-3.2 74.05-6.25 72.3-9.3 72.3-13.15L72.3-13.15Q72.3-17 74.05-20.05 75.8-23.1 78.84-24.8 81.9-26.5 85.7-26.5L85.7-26.5Q89.5-26.5 92.55-24.8 95.59-23.1 97.32-20.05 99.05-17 99.05-13.15L99.05-13.15Q99.05-9.3 97.32-6.25 95.59-3.2 92.55-1.48 89.5 0.25 85.7 0.25L85.7 0.25ZM85.7-2.9Q88.5-2.9 90.72-4.17 92.95-5.45 94.2-7.8 95.45-10.15 95.45-13.15L95.45-13.15Q95.45-16.15 94.2-18.5 92.95-20.85 90.72-22.13 88.5-23.4 85.7-23.4L85.7-23.4Q82.9-23.4 80.67-22.13 78.45-20.85 77.17-18.5 75.9-16.15 75.9-13.15L75.9-13.15Q75.9-10.15 77.17-7.8 78.45-5.45 80.67-4.17 82.9-2.9 85.7-2.9L85.7-2.9ZM126.74-37.1L130.29-37.1 130.29 0 126.89 0 126.89-5.2Q125.29-2.55 122.67-1.15 120.04 0.25 116.74 0.25L116.74 0.25Q113.04 0.25 110.04-1.45 107.04-3.15 105.34-6.2 103.64-9.25 103.64-13.15L103.64-13.15Q103.64-17.05 105.34-20.1 107.04-23.15 110.04-24.83 113.04-26.5 116.74-26.5L116.74-26.5Q119.94-26.5 122.52-25.18 125.09-23.85 126.74-21.3L126.74-21.3 126.74-37.1ZM117.04-2.9Q119.79-2.9 122.02-4.17 124.24-5.45 125.52-7.8 126.79-10.15 126.79-13.15L126.79-13.15Q126.79-16.15 125.52-18.5 124.24-20.85 122.02-22.13 119.79-23.4 117.04-23.4L117.04-23.4Q114.24-23.4 112.02-22.13 109.79-20.85 108.52-18.5 107.24-16.15 107.24-13.15L107.24-13.15Q107.24-10.15 108.52-7.8 109.79-5.45 112.02-4.17 114.24-2.9 117.04-2.9L117.04-2.9ZM166.84-26.5Q170.54-26.5 173.54-24.83 176.54-23.15 178.24-20.1 179.94-17.05 179.94-13.15L179.94-13.15Q179.94-9.25 178.24-6.2 176.54-3.15 173.54-1.45 170.54 0.25 166.84 0.25L166.84 0.25Q163.54 0.25 160.91-1.15 158.29-2.55 156.69-5.2L156.69-5.2 156.69 0 153.29 0 153.29-37.1 156.84-37.1 156.84-21.3Q158.49-23.85 161.06-25.18 163.64-26.5 166.84-26.5L166.84-26.5ZM166.59-2.9Q169.34-2.9 171.59-4.17 173.84-5.45 175.11-7.8 176.39-10.15 176.39-13.15L176.39-13.15Q176.39-16.15 175.11-18.5 173.84-20.85 171.59-22.13 169.34-23.4 166.59-23.4L166.59-23.4Q163.79-23.4 161.56-22.13 159.34-20.85 158.06-18.5 156.79-16.15 156.79-13.15L156.79-13.15Q156.79-10.15 158.06-7.8 159.34-5.45 161.56-4.17 163.79-2.9 166.59-2.9L166.59-2.9ZM207.34-26.3L210.89-26.3 210.89-3.2Q210.89 3.5 207.84 6.73 204.79 9.95 198.64 9.95L198.64 9.95Q195.19 9.95 192.11 8.88 189.04 7.8 187.14 5.9L187.14 5.9 188.94 3.2Q190.64 4.9 193.14 5.85 195.64 6.8 198.49 6.8L198.49 6.8Q203.04 6.8 205.19 4.48 207.34 2.15 207.34-2.75L207.34-2.75 207.34-5.8Q205.94-3.5 203.51-2.25 201.09-1 198.04-1L198.04-1Q192.89-1 189.91-3.88 186.94-6.75 186.94-12.3L186.94-12.3 186.94-26.3 190.49-26.3 190.49-12.65Q190.49-8.5 192.54-6.35 194.59-4.2 198.39-4.2L198.39-4.2Q202.54-4.2 204.94-6.73 207.34-9.25 207.34-13.75L207.34-13.75 207.34-26.3ZM232.08-2.9Q234.53-2.9 236.61-3.78 238.68-4.65 240.13-6.35L240.13-6.35 242.13-4.05Q240.38-1.95 237.78-0.85 235.18 0.25 232.03 0.25L232.03 0.25Q227.98 0.25 224.83-1.48 221.68-3.2 219.93-6.25 218.18-9.3 218.18-13.15L218.18-13.15Q218.18-17 219.86-20.05 221.53-23.1 224.48-24.8 227.43-26.5 231.18-26.5L231.18-26.5Q234.68-26.5 237.51-24.9 240.33-23.3 242.01-20.45 243.68-17.6 243.78-13.95L243.78-13.95 222.18-9.75Q223.18-6.55 225.81-4.73 228.43-2.9 232.08-2.9L232.08-2.9ZM231.18-23.45Q228.43-23.45 226.26-22.18 224.08-20.9 222.86-18.63 221.63-16.35 221.63-13.4L221.63-13.4Q221.63-12.65 221.68-12.3L221.68-12.3 240.23-15.9Q239.63-19.2 237.18-21.33 234.73-23.45 231.18-23.45L231.18-23.45ZM264.88 0L264.88-35 279.13-35Q284.68-35 288.93-32.77 293.18-30.55 295.53-26.58 297.88-22.6 297.88-17.5L297.88-17.5Q297.88-12.4 295.53-8.43 293.18-4.45 288.93-2.23 284.68 0 279.13 0L279.13 0 264.88 0ZM268.58-3.2L278.93-3.2Q283.53-3.2 286.98-5.03 290.43-6.85 292.33-10.08 294.23-13.3 294.23-17.5L294.23-17.5Q294.23-21.7 292.33-24.93 290.43-28.15 286.98-29.98 283.53-31.8 278.93-31.8L278.93-31.8 268.58-31.8 268.58-3.2ZM316.68-2.9Q319.13-2.9 321.2-3.78 323.28-4.65 324.73-6.35L324.73-6.35 326.73-4.05Q324.98-1.95 322.38-0.85 319.78 0.25 316.63 0.25L316.63 0.25Q312.58 0.25 309.43-1.48 306.28-3.2 304.53-6.25 302.78-9.3 302.78-13.15L302.78-13.15Q302.78-17 304.45-20.05 306.13-23.1 309.08-24.8 312.03-26.5 315.78-26.5L315.78-26.5Q319.28-26.5 322.1-24.9 324.93-23.3 326.6-20.45 328.28-17.6 328.38-13.95L328.38-13.95 306.78-9.75Q307.78-6.55 310.4-4.73 313.03-2.9 316.68-2.9L316.68-2.9ZM315.78-23.45Q313.03-23.45 310.85-22.18 308.68-20.9 307.45-18.63 306.23-16.35 306.23-13.4L306.23-13.4Q306.23-12.65 306.28-12.3L306.28-12.3 324.83-15.9Q324.23-19.2 321.78-21.33 319.33-23.45 315.78-23.45L315.78-23.45ZM349.17-26.5Q352.87-26.5 355.87-24.83 358.87-23.15 360.57-20.1 362.27-17.05 362.27-13.15L362.27-13.15Q362.27-9.25 360.57-6.2 358.87-3.15 355.87-1.45 352.87 0.25 349.17 0.25L349.17 0.25Q345.87 0.25 343.25-1.15 340.62-2.55 339.02-5.2L339.02-5.2 339.02 0 335.62 0 335.62-37.1 339.17-37.1 339.17-21.3Q340.82-23.85 343.4-25.18 345.97-26.5 349.17-26.5L349.17-26.5ZM348.92-2.9Q351.67-2.9 353.92-4.17 356.17-5.45 357.45-7.8 358.72-10.15 358.72-13.15L358.72-13.15Q358.72-16.15 357.45-18.5 356.17-20.85 353.92-22.13 351.67-23.4 348.92-23.4L348.92-23.4Q346.12-23.4 343.9-22.13 341.67-20.85 340.4-18.5 339.12-16.15 339.12-13.15L339.12-13.15Q339.12-10.15 340.4-7.8 341.67-5.45 343.9-4.17 346.12-2.9 348.92-2.9L348.92-2.9ZM381.22-4.15L382.47-1.6Q381.47-0.7 380.02-0.23 378.57 0.25 376.97 0.25L376.97 0.25Q373.27 0.25 371.27-1.75 369.27-3.75 369.27-7.4L369.27-7.4 369.27-32.05 372.82-32.05 372.82-26.3 380.77-26.3 380.77-23.3 372.82-23.3 372.82-7.6Q372.82-5.25 373.97-4.03 375.12-2.8 377.32-2.8L377.32-2.8Q379.72-2.8 381.22-4.15L381.22-4.15Z" opacity="1" transform="matrix(1,0,0,1,0,0)" fill="#4b91f1" class="slogan-text-1" data-fill-palette-color="secondary" id="text-1"></path></svg></g></svg></g></svg></g></svg></g><g transform="matrix(1,0,0,1,45.854632692809545,0)"><svg viewBox="0 0 100.29073461438091 121.76936800121625" height="121.76936800121625" width="100.29073461438091"><g><svg xmlns="http://www.w3.org/2000/svg" xmlns:xlink="http://www.w3.org/1999/xlink" version="1.1" x="0" y="0" viewBox="11.510102272033691 4.579038619995117 60.51185607910156 73.47129821777344" enable-background="new 0 0 81.813 81.585" xml:space="preserve" height="121.76936800121625" width="100.29073461438091" class="icon-icon-0" data-fill-palette-color="accent" id="icon-0"><g fill="#1ebbd7" data-fill-palette-color="accent"><polygon points="48.676,24.298 48.671,24.292 46.967,22.037 45.678,23.009 62.924,45.846 64.217,44.87 55.592,33.453  " fill="#1ebbd7" data-fill-palette-color="accent"></polygon><path d="M71.452 42.851L43.391 5.702c-0.939-1.244-2.726-1.493-3.97-0.553L18.247 21.144c-1.244 0.94-1.493 2.727-0.553 3.971l2.532 3.351c0.587 0.778 1.225 1.621 1.708 2.262-2.908 2.815-5.788 5.948-7.544 7.729-3.334 3.391-3.16 11.251-2.479 17.229 0.028 0.255 0.057 0.513 0.087 0.759 0.169 1.363 0.358 2.609 0.531 3.652 1.385 8.397 4.949 18.413 15.2 17.937 9.657-0.451 14.245-7.767 20.39-13.373 0.585-0.533 1.065-1.128 1.48-1.767 0.041-0.027 0.086-0.046 0.126-0.076l21.174-15.995C72.143 45.881 72.392 44.095 71.452 42.851zM46.657 63.058c-5.735 5.23-10.252 12.401-19.029 12.811-7.824 0.366-11.403-6.674-12.962-16.125-0.21-1.272-0.401-2.617-0.56-3.99-0.037-0.316-0.07-0.635-0.103-0.953-0.619-6.041-0.495-12.357 1.931-14.822 2.285-2.318 4.882-5.094 7.322-7.499l2.01 2.662 2.01 2.662c0 0 0.001 0.001 0.001 0.002l0.22 0.292 3.19 4.223 3.191 4.223c-0.057 0.496-0.098 0.998-0.104 1.51-0.006 0.419 0.002 0.836 0.029 1.253 0.133 2.113 0.653 4.142 1.425 5.396 3.801 4.119 6.952-1.805 8.885-5.484 0.892-1.696 2.542-3.683 4.454-4.745l2.246-0.735c1.012-0.089 2.039 0.154 3.027 0.902 1.081 0.82 1.534 2.207 0.939 3.778-0.002 0.007-0.008 0.013-0.008 0.019-0.332 0.862-0.967 1.781-2.013 2.694C49.478 55.771 49.455 60.507 46.657 63.058zM35.977 49.318c0.173 0.229 0.349 0.463 0.525 0.695l2.44 3.23c-0.367 0.369-0.734 0.648-1.046 0.686-0.281 0.033-0.678-0.302-0.925-0.544C36.373 52.295 36.076 50.654 35.977 49.318zM67.391 46.158L51.83 57.912c0.657-1.766 1.376-3.6 2.566-5.34 2.375-2.18 3.421-5.041 2.497-7.398l0.806 1.066c0.002 0.002 0.003 0.004 0.005 0.006l1.704 2.256 1.29-0.976-1.7-2.25c-0.003-0.004-0.005-0.008-0.008-0.012L45.158 26.954c-0.003-0.003-0.005-0.006-0.008-0.01l-1.701-2.252-1.291 0.977 8.625 11.417 4.459 5.903c-0.199-0.159-0.412-0.313-0.645-0.459 0.01-0.014-0.225-0.112-0.215-0.125l-0.021 0.007c-1.707-0.944-3.393-0.948-4.908-0.504L33.529 20.824c-0.033-0.043-0.068-0.079-0.102-0.121l-1.612-2.146-2.291 1.738 17.218 22.92c-1.052 0.704-1.905 1.499-2.464 2.079L26.895 22.283l-2.296 1.733 2.243 2.97L42.49 47.701c-0.576 0.988-1.046 1.984-1.793 3.21-0.06 0.098-0.141 0.226-0.233 0.368l-19.264-25.5c-0.939-1.244-0.69-3.03 0.553-3.971L39.1 8.705c1.244-0.94 3.031-0.691 3.971 0.553l24.874 32.931C68.884 43.432 68.635 45.218 67.391 46.158z" fill="#1ebbd7" data-fill-palette-color="accent"></path><polygon points="44.616,16.24 44.615,16.238 42.793,13.825 42.789,13.821 41.084,11.563 37.273,14.442 35.724,15.613    35.723,15.614 33.462,17.322 36.081,20.79 36.992,21.997 36.994,21.999 38.701,24.258 42.512,21.379 44.064,20.207 46.323,18.5     " fill="#1ebbd7" data-fill-palette-color="accent"></polygon></g></svg></g></svg></g><g></g></svg></g></svg></g></svg></g></svg></g><defs></defs></svg><rect width="320" height="360" fill="none" stroke="none" visibility="hidden"></rect></g></svg></g></svg>