<svg xmlns="http://www.w3.org/2000/svg" version="1.1" xmlns:xlink="http://www.w3.org/1999/xlink" xmlns:svgjs="http://svgjs.dev/svgjs" width="2000" height="2250" viewBox="0 0 2000 2250"><g transform="matrix(1,0,0,1,0.00014687500004129106,0)"><svg viewBox="0 0 320 360" data-background-color="#ffffff" preserveAspectRatio="xMidYMid meet" height="2250" width="2000" xmlns="http://www.w3.org/2000/svg" xmlns:xlink="http://www.w3.org/1999/xlink"><g id="tight-bounds" transform="matrix(1,0,0,1,0.000023499999997511622,0)"><svg viewBox="0 0 320 360" height="360" width="320"><g><svg></svg></g><g><svg viewBox="0 0 320 360" height="360" width="320"><g><path transform="translate(-74.99272,-51.79039) scale(4.65793,4.65793)" d="M20.6 59.9l0.8 1-0.4-1.3c-0.1-0.6-0.8 0.1-0.4 0.3M21.5 59.3c0.3 0.5 0.6 1 0.6 1.5 0 0.7 0.6 1 1.1 1.2-0.7-0.8-1.1-3-1.7-2.7M59.9 16.9c1.7 0 3.3-0.2 5.1 0.2 4.4 1.1 8.1 3.3 10.6 6.4l7 11.2c0.3 2.8 0.9 5.9 0.8 9.3 0.7 0 0.6-1 1.4-1.2-0.8 2-1.2 4.5-1.4 7.4-0.5-1.6 0-4 0.1-5.3-0.7 1.1-1.1 0.3-1.1-0.2 0.1-0.8-0.3-0.7-0.6-1-1.1-1-1.8-2.1-2.6-3.8 0.5-1.3 0.6-3.2-1-4.2-0.5-0.3-1.1-0.8-1.4-1.6-0.4-1.1-1.1-2.4-0.9-4.1 0.1-0.5-1.5 1.1-2.4 0.4-3.9-2.7-7.8-5.8-12.5-8.4-2.5 0-4.3-0.9-5.2-2-0.8-1-0.2-2.3 1-2.4 0.7 0 1.5-0.2 2.1 0.2 0.1-0.4 0.5-0.9 1-0.9M50 14.6l0.2 0.1c1 0.2 1.5 1.6 2.6 1.1 0 0.7 0.1 1.4-0.1 1.9-0.3 0.8-1.2 0.8-1.9 0.8-6.7-0.4-10.6 2.4-14.7 4.8-1.1 0.7-2.3 1.2-3.2 2.1-4.3 4-9 7.7-10.1 15.1l-0.9 8.2c-0.1 0.9-1.1 1.8-0.9 2.9l0.7 4.9c-0.7-0.7-1.1 0.2-0.9 0.6 0.1 0.3 0.5 1.3 1.1 0.4 0.8 1.5 1.6 4.4 2.7 5.7 3.4 4 7.8 7.6 11.4 11.2 0.9-0.2 1.6-0.2 1.8-0.8 0.3 0.6-0.3 1.2-0.8 1.3 1.6 1 3.4 1.9 5.8 2.1 3.1 0.2 6 0.7 8.7 1.4 1.4-0.4 2.8-0.6 4.3-0.7 0.5 0 0.8-0.8 1.4-1l0.1-1c0.6 0.9 0.5-0.3 0.1-0.9 0.7 0.6 0.9 1.1 1.2 1.5 0-0.3 0.8-1.4 0.8-0.1l0.2-1.3c0.3-0.2 0.4 1.1 0.7 0.2 0.3-0.9 0.9-0.2 1.5-0.5-0.2 0.4-0.1 1.2 0.6 0.7l0.8-0.7c0.5 1.2 1.3 0.7 1.7 0.5 4.4-2.8 8.8-6.1 13-9.4l-0.1 1.3 0.5-1.6c0.5 0.5 0.9 0.1 1.1-0.2 0.6-1 1.4-2 2.7-2.9-1.6 4.3-3.5 7.7-5.9 10.5l-1 1.2c0 0.7-0.2 1.6-1 1.7-0.4 0.1-1.2-0.2-1.8 0.4-0.3 0.4 0.7 1.2-0.1 0.6-0.7-0.5-1.4 0-2.2 0.2-0.6 0.2 0.4 0.8 0.6 1.2 0.2 0.4 0.4 0.8 0.3 1.3l-1.1-1.2c-1.3 0.7-2.1 2-3.2 3-0.5 0.4-0.3 1.1-0.3 1.7-0.7 0-1.5-0.2-1.9 0.2-0.3 0.4-0.2 1-0.2 1.6-1-0.1-1.1-1.6-2-1.3-0.9 0.2-1.9 0.3-2.7 0.8 0.6 1.2-1 0.5-0.8 0.7-1.5-0.9-2.8-1.6-4.4-1-3.4-1.1-7.6-0.6-10.7-0.2 0-0.5 0.1-1-0.1-1.1-0.2 0.5-0.8 0.3-0.7 0.3-1.9-1.3-3.8-2.1-5.8-3.2-1.8 0.2-3.5-0.7-4-1.2-1.4-1.3-3-0.6-4.3-0.9-2.8-0.7-3.8-3.6-4.1-5.6-0.2-1-1-1.4-1.3-1.3-1.3-4.2-3.3-8-4.9-11.9-0.4-1-0.3-2-0.3-3.1 0.5 0.2 1 0.1 0.9-0.6-0.5-3.3-1.7-5.8-3-8.2 0.7-3.4 0.8-7.4 2.4-10.4 1.4-2.7 4-4.1 5.8-6.4 0.6-0.8 0.6-1.9 1.2-2.6 2-2 4-4.1 6.2-5.9 1-0.8 2.2 0 3.7-0.3 0.5-1.8 2.5-3.4 4.4-2.9 0.8 0.2 2.4-1.9 2.9-2.1 0.8-0.3 0.4 0.8 0.4 1.5 1.9-1.5 4.5-2.3 6.9-3.2" fill="#1ebbd7" fill-rule="nonzero" stroke="none" stroke-width="1" stroke-linecap="butt" stroke-linejoin="miter" stroke-miterlimit="10" stroke-dasharray="" stroke-dashoffset="0" font-family="none" font-weight="none" font-size="none" text-anchor="none" style="mix-blend-mode: normal" data-fill-palette-color="tertiary"></path></g><g transform="matrix(1,0,0,1,79.72897244527593,90)"><svg viewBox="0 0 160.54205510944814 180" height="180" width="160.54205510944814"><g><svg viewBox="0 0 160.54205510944814 180" height="180" width="160.54205510944814"><g><svg viewBox="0 0 192 215.2706963694904" height="180" width="160.54205510944814"><g transform="matrix(1,0,0,1,0,128.27244871537985)"><svg viewBox="0 0 192 86.99824765411053" height="86.99824765411053" width="192"><g id="textblocktransform"><svg viewBox="0 0 192 86.99824765411053" height="86.99824765411053" width="192" id="textblock"><g><svg viewBox="0 0 192 55.10313901345291" height="55.10313901345291" width="192"><g transform="matrix(1,0,0,1,0,0)"><svg width="192" viewBox="3 -37.65 133.79 38.4" height="55.10313901345291" data-palette-color="#1ebbd7"><path d="M3-34.55L20.15-34.55 19.5-29.8 9.35-29.8 9.35-19.9 18.2-19.9 18.2-15.2 9.35-15.2 9.35-4.8 20.15-4.8 20.15 0 3 0 3-34.55ZM36.85-27.15Q39.7-27.15 41.35-25.1 43-23.05 43-19.6L43-19.6 43 0 36.85 0 36.85-18.9Q36.85-20.8 36.32-21.63 35.8-22.45 34.8-22.45L34.8-22.45Q32.7-22.45 30.65-18.5L30.65-18.5 30.65 0 24.5 0 24.5-26.45 29.85-26.45 30.3-23Q31.65-25.1 33.17-26.13 34.7-27.15 36.85-27.15L36.85-27.15ZM56.4-34.55Q60.75-34.55 63.92-33.23 67.1-31.9 69.07-28.13 71.05-24.35 71.05-17.45L71.05-17.45Q71.05-7.7 67.17-3.85 63.3 0 57.05 0L57.05 0 48.7 0 48.7-34.55 56.4-34.55ZM57.35-29.8L55.05-29.8 55.05-4.75 57.4-4.75Q59.65-4.75 61.17-5.8 62.7-6.85 63.57-9.65 64.45-12.45 64.45-17.45L64.45-17.45Q64.45-22.55 63.52-25.25 62.6-27.95 61.07-28.88 59.55-29.8 57.35-29.8L57.35-29.8ZM94.49-13.85Q94.49-13.4 94.34-11.3L94.34-11.3 80.69-11.3Q80.89-7.2 82.12-5.58 83.34-3.95 85.59-3.95L85.59-3.95Q87.14-3.95 88.39-4.48 89.64-5 91.09-6.15L91.09-6.15 93.64-2.65Q90.14 0.75 85.24 0.75L85.24 0.75Q80.04 0.75 77.27-2.85 74.49-6.45 74.49-13L74.49-13Q74.49-19.55 77.14-23.35 79.79-27.15 84.64-27.15L84.64-27.15Q89.29-27.15 91.89-23.78 94.49-20.4 94.49-13.85L94.49-13.85ZM88.49-15.3L88.49-15.65Q88.49-19.4 87.59-21.13 86.69-22.85 84.69-22.85L84.69-22.85Q82.84-22.85 81.87-21.18 80.89-19.5 80.69-15.3L80.69-15.3 88.49-15.3ZM110.94-27.15Q114.79-27.15 116.84-23.65 118.89-20.15 118.89-13.25L118.89-13.25Q118.89-6.75 116.59-3 114.29 0.75 110.29 0.75L110.29 0.75Q108.54 0.75 107.09-0.13 105.64-1 104.59-2.55L104.59-2.55 104.24 0 98.79 0 98.79-37 104.94-37.65 104.94-23.6Q105.99-25.3 107.52-26.23 109.04-27.15 110.94-27.15L110.94-27.15ZM108.64-3.9Q110.49-3.9 111.52-6 112.54-8.1 112.54-13.25L112.54-13.25Q112.54-18.6 111.62-20.58 110.69-22.55 108.99-22.55L108.99-22.55Q107.84-22.55 106.79-21.6 105.74-20.65 104.94-19.1L104.94-19.1 104.94-6.7Q105.59-5.45 106.57-4.67 107.54-3.9 108.64-3.9L108.64-3.9ZM134.64-5L136.79-1.2Q134.34 0.75 131.04 0.75L131.04 0.75Q127.59 0.75 125.79-1.23 123.99-3.2 123.99-6.6L123.99-6.6 123.99-22 120.89-22 120.89-26.45 123.99-26.45 123.99-32.3 130.14-33.05 130.14-26.45 135.14-26.45 134.54-22 130.14-22 130.14-6.6Q130.14-4.2 132.19-4.2L132.19-4.2Q132.84-4.2 133.34-4.38 133.84-4.55 134.64-5L134.64-5Z" opacity="1" transform="matrix(1,0,0,1,0,0)" fill="#1ebbd7" class="wordmark-text-0" data-fill-palette-color="primary" id="text-0"></path></svg></g></svg></g><g transform="matrix(1,0,0,1,0,63.14400947085201)"><svg viewBox="0 0 192 23.854238183258516" height="23.854238183258516" width="192"><g transform="matrix(1,0,0,1,0,0)"><svg width="192" viewBox="2.6 -37.1 378.7 47.05" height="23.854238183258516" data-palette-color="#4b91f1"><path d="M30.35-6.7L30.35-17.5 33.9-17.5 33.9 0 30.65 0 30.65-2.95Q28.65-1.35 25.98-0.53 23.3 0.3 20.25 0.3L20.25 0.3Q15.55 0.3 11.53-1.8 7.5-3.9 5.05-7.9 2.6-11.9 2.6-17.4L2.6-17.4Q2.6-22.5 5-26.58 7.4-30.65 11.6-32.98 15.8-35.3 21.1-35.3L21.1-35.3Q25.1-35.3 28.45-34.02 31.8-32.75 34.1-30.25L34.1-30.25 31.8-27.9Q27.65-32 21.25-32L21.25-32Q17-32 13.58-30.13 10.15-28.25 8.2-24.9 6.25-21.55 6.25-17.4L6.25-17.4Q6.25-12.95 8.22-9.68 10.2-6.4 13.48-4.67 16.75-2.95 20.5-2.95L20.5-2.95Q23.25-2.95 25.83-3.88 28.4-4.8 30.35-6.7L30.35-6.7ZM54.35 0.25Q50.55 0.25 47.5-1.48 44.45-3.2 42.7-6.25 40.95-9.3 40.95-13.15L40.95-13.15Q40.95-17 42.7-20.05 44.45-23.1 47.5-24.8 50.55-26.5 54.35-26.5L54.35-26.5Q58.15-26.5 61.2-24.8 64.25-23.1 65.98-20.05 67.7-17 67.7-13.15L67.7-13.15Q67.7-9.3 65.98-6.25 64.25-3.2 61.2-1.48 58.15 0.25 54.35 0.25L54.35 0.25ZM54.35-2.9Q57.15-2.9 59.38-4.17 61.6-5.45 62.85-7.8 64.1-10.15 64.1-13.15L64.1-13.15Q64.1-16.15 62.85-18.5 61.6-20.85 59.38-22.13 57.15-23.4 54.35-23.4L54.35-23.4Q51.55-23.4 49.33-22.13 47.1-20.85 45.83-18.5 44.55-16.15 44.55-13.15L44.55-13.15Q44.55-10.15 45.83-7.8 47.1-5.45 49.33-4.17 51.55-2.9 54.35-2.9L54.35-2.9ZM85.7 0.25Q81.9 0.25 78.85-1.48 75.8-3.2 74.05-6.25 72.3-9.3 72.3-13.15L72.3-13.15Q72.3-17 74.05-20.05 75.8-23.1 78.85-24.8 81.9-26.5 85.7-26.5L85.7-26.5Q89.5-26.5 92.55-24.8 95.6-23.1 97.33-20.05 99.05-17 99.05-13.15L99.05-13.15Q99.05-9.3 97.33-6.25 95.6-3.2 92.55-1.48 89.5 0.25 85.7 0.25L85.7 0.25ZM85.7-2.9Q88.5-2.9 90.73-4.17 92.95-5.45 94.2-7.8 95.45-10.15 95.45-13.15L95.45-13.15Q95.45-16.15 94.2-18.5 92.95-20.85 90.73-22.13 88.5-23.4 85.7-23.4L85.7-23.4Q82.9-23.4 80.68-22.13 78.45-20.85 77.18-18.5 75.9-16.15 75.9-13.15L75.9-13.15Q75.9-10.15 77.18-7.8 78.45-5.45 80.68-4.17 82.9-2.9 85.7-2.9L85.7-2.9ZM126.75-37.1L130.3-37.1 130.3 0 126.9 0 126.9-5.2Q125.3-2.55 122.68-1.15 120.05 0.25 116.75 0.25L116.75 0.25Q113.05 0.25 110.05-1.45 107.05-3.15 105.35-6.2 103.65-9.25 103.65-13.15L103.65-13.15Q103.65-17.05 105.35-20.1 107.05-23.15 110.05-24.83 113.05-26.5 116.75-26.5L116.75-26.5Q119.95-26.5 122.53-25.18 125.1-23.85 126.75-21.3L126.75-21.3 126.75-37.1ZM117.05-2.9Q119.8-2.9 122.03-4.17 124.25-5.45 125.53-7.8 126.8-10.15 126.8-13.15L126.8-13.15Q126.8-16.15 125.53-18.5 124.25-20.85 122.03-22.13 119.8-23.4 117.05-23.4L117.05-23.4Q114.25-23.4 112.03-22.13 109.8-20.85 108.53-18.5 107.25-16.15 107.25-13.15L107.25-13.15Q107.25-10.15 108.53-7.8 109.8-5.45 112.03-4.17 114.25-2.9 117.05-2.9L117.05-2.9ZM140.55 0.25Q139.45 0.25 138.68-0.55 137.9-1.35 137.9-2.5L137.9-2.5Q137.9-3.65 138.68-4.42 139.45-5.2 140.55-5.2L140.55-5.2Q141.65-5.2 142.45-4.42 143.25-3.65 143.25-2.5L143.25-2.5Q143.25-1.35 142.45-0.55 141.65 0.25 140.55 0.25L140.55 0.25ZM173.6-18.05Q177.05-17.3 178.93-15.08 180.8-12.85 180.8-9.35L180.8-9.35Q180.8-4.85 177.48-2.43 174.15 0 167.65 0L167.65 0 151.55 0 151.55-35 166.65-35Q172.5-35 175.73-32.65 178.95-30.3 178.95-26L178.95-26Q178.95-23.1 177.53-21.08 176.1-19.05 173.6-18.05L173.6-18.05ZM166.4-31.95L155.25-31.95 155.25-19.25 166.4-19.25Q170.65-19.25 172.95-20.88 175.25-22.5 175.25-25.6L175.25-25.6Q175.25-28.7 172.95-30.33 170.65-31.95 166.4-31.95L166.4-31.95ZM167.6-3.05Q172.3-3.05 174.7-4.65 177.1-6.25 177.1-9.65L177.1-9.65Q177.1-16.2 167.6-16.2L167.6-16.2 155.25-16.2 155.25-3.05 167.6-3.05ZM208.65-26.3L212.2-26.3 212.2-3.2Q212.2 3.5 209.15 6.73 206.1 9.95 199.95 9.95L199.95 9.95Q196.5 9.95 193.43 8.88 190.35 7.8 188.45 5.9L188.45 5.9 190.25 3.2Q191.95 4.9 194.45 5.85 196.95 6.8 199.8 6.8L199.8 6.8Q204.35 6.8 206.5 4.48 208.65 2.15 208.65-2.75L208.65-2.75 208.65-5.8Q207.25-3.5 204.83-2.25 202.4-1 199.35-1L199.35-1Q194.2-1 191.23-3.88 188.25-6.75 188.25-12.3L188.25-12.3 188.25-26.3 191.8-26.3 191.8-12.65Q191.8-8.5 193.85-6.35 195.9-4.2 199.7-4.2L199.7-4.2Q203.85-4.2 206.25-6.73 208.65-9.25 208.65-13.75L208.65-13.75 208.65-26.3ZM233.4-2.9Q235.85-2.9 237.93-3.78 240-4.65 241.45-6.35L241.45-6.35 243.45-4.05Q241.7-1.95 239.1-0.85 236.5 0.25 233.35 0.25L233.35 0.25Q229.3 0.25 226.15-1.48 223-3.2 221.25-6.25 219.5-9.3 219.5-13.15L219.5-13.15Q219.5-17 221.18-20.05 222.85-23.1 225.8-24.8 228.75-26.5 232.5-26.5L232.5-26.5Q236-26.5 238.83-24.9 241.65-23.3 243.33-20.45 245-17.6 245.1-13.95L245.1-13.95 223.5-9.75Q224.5-6.55 227.13-4.73 229.75-2.9 233.4-2.9L233.4-2.9ZM232.5-23.45Q229.75-23.45 227.58-22.18 225.4-20.9 224.18-18.63 222.95-16.35 222.95-13.4L222.95-13.4Q222.95-12.65 223-12.3L223-12.3 241.55-15.9Q240.95-19.2 238.5-21.33 236.05-23.45 232.5-23.45L232.5-23.45ZM252.7 0.25Q251.6 0.25 250.83-0.55 250.05-1.35 250.05-2.5L250.05-2.5Q250.05-3.65 250.83-4.42 251.6-5.2 252.7-5.2L252.7-5.2Q253.8-5.2 254.6-4.42 255.4-3.65 255.4-2.5L255.4-2.5Q255.4-1.35 254.6-0.55 253.8 0.25 252.7 0.25L252.7 0.25ZM263.7 0L263.7-35 277.95-35Q283.5-35 287.75-32.77 292-30.55 294.35-26.58 296.7-22.6 296.7-17.5L296.7-17.5Q296.7-12.4 294.35-8.43 292-4.45 287.75-2.23 283.5 0 277.95 0L277.95 0 263.7 0ZM267.4-3.2L277.75-3.2Q282.35-3.2 285.8-5.03 289.25-6.85 291.15-10.08 293.05-13.3 293.05-17.5L293.05-17.5Q293.05-21.7 291.15-24.93 289.25-28.15 285.8-29.98 282.35-31.8 277.75-31.8L277.75-31.8 267.4-31.8 267.4-3.2ZM315.5-2.9Q317.95-2.9 320.03-3.78 322.1-4.65 323.55-6.35L323.55-6.35 325.55-4.05Q323.8-1.95 321.2-0.85 318.6 0.25 315.45 0.25L315.45 0.25Q311.4 0.25 308.25-1.48 305.1-3.2 303.35-6.25 301.6-9.3 301.6-13.15L301.6-13.15Q301.6-17 303.28-20.05 304.95-23.1 307.9-24.8 310.85-26.5 314.6-26.5L314.6-26.5Q318.1-26.5 320.93-24.9 323.75-23.3 325.43-20.45 327.1-17.6 327.2-13.95L327.2-13.95 305.6-9.75Q306.6-6.55 309.23-4.73 311.85-2.9 315.5-2.9L315.5-2.9ZM314.6-23.45Q311.85-23.45 309.68-22.18 307.5-20.9 306.28-18.63 305.05-16.35 305.05-13.4L305.05-13.4Q305.05-12.65 305.1-12.3L305.1-12.3 323.65-15.9Q323.05-19.2 320.6-21.33 318.15-23.45 314.6-23.45L314.6-23.45ZM348-26.5Q351.7-26.5 354.7-24.83 357.7-23.15 359.4-20.1 361.1-17.05 361.1-13.15L361.1-13.15Q361.1-9.25 359.4-6.2 357.7-3.15 354.7-1.45 351.7 0.25 348 0.25L348 0.25Q344.7 0.25 342.08-1.15 339.45-2.55 337.85-5.2L337.85-5.2 337.85 0 334.45 0 334.45-37.1 338-37.1 338-21.3Q339.65-23.85 342.23-25.18 344.8-26.5 348-26.5L348-26.5ZM347.75-2.9Q350.5-2.9 352.75-4.17 355-5.45 356.28-7.8 357.55-10.15 357.55-13.15L357.55-13.15Q357.55-16.15 356.28-18.5 355-20.85 352.75-22.13 350.5-23.4 347.75-23.4L347.75-23.4Q344.95-23.4 342.73-22.13 340.5-20.85 339.23-18.5 337.95-16.15 337.95-13.15L337.95-13.15Q337.95-10.15 339.23-7.8 340.5-5.45 342.73-4.17 344.95-2.9 347.75-2.9L347.75-2.9ZM380.05-4.15L381.3-1.6Q380.3-0.7 378.85-0.23 377.4 0.25 375.8 0.25L375.8 0.25Q372.1 0.25 370.1-1.75 368.1-3.75 368.1-7.4L368.1-7.4 368.1-32.05 371.65-32.05 371.65-26.3 379.6-26.3 379.6-23.3 371.65-23.3 371.65-7.6Q371.65-5.25 372.8-4.03 373.95-2.8 376.15-2.8L376.15-2.8Q378.55-2.8 380.05-4.15L380.05-4.15Z" opacity="1" transform="matrix(1,0,0,1,0,0)" fill="#4b91f1" class="slogan-text-1" data-fill-palette-color="secondary" id="text-1"></path></svg></g></svg></g></svg></g></svg></g><g transform="matrix(1,0,0,1,46.48790428560835,0)"><svg viewBox="0 0 99.0241914287833 120.23157825798076" height="120.23157825798076" width="99.0241914287833"><g><svg xmlns="http://www.w3.org/2000/svg" xmlns:xlink="http://www.w3.org/1999/xlink" version="1.1" x="0" y="0" viewBox="11.510102811059436 4.5790382336706585 60.5118589552699 73.47130232059315" enable-background="new 0 0 81.813 81.585" xml:space="preserve" height="120.23157825798076" width="99.0241914287833" class="icon-icon-0" data-fill-palette-color="accent" id="icon-0"><g fill="#1ebbd7" data-fill-palette-color="accent"><polygon points="48.676,24.298 48.671,24.292 46.967,22.037 45.678,23.009 62.924,45.846 64.217,44.87 55.592,33.453  " fill="#1ebbd7" data-fill-palette-color="accent"></polygon><path d="M71.452 42.851L43.391 5.702c-0.939-1.244-2.726-1.493-3.97-0.553L18.247 21.144c-1.244 0.94-1.493 2.727-0.553 3.971l2.532 3.351c0.587 0.778 1.225 1.621 1.708 2.262-2.908 2.815-5.788 5.948-7.544 7.729-3.334 3.391-3.16 11.251-2.479 17.229 0.028 0.255 0.057 0.513 0.087 0.759 0.169 1.363 0.358 2.609 0.531 3.652 1.385 8.397 4.949 18.413 15.2 17.937 9.657-0.451 14.245-7.767 20.39-13.373 0.585-0.533 1.065-1.128 1.48-1.767 0.041-0.027 0.086-0.046 0.126-0.076l21.174-15.995C72.143 45.881 72.392 44.095 71.452 42.851zM46.657 63.058c-5.735 5.23-10.252 12.401-19.029 12.811-7.824 0.366-11.403-6.674-12.962-16.125-0.21-1.272-0.401-2.617-0.56-3.99-0.037-0.316-0.07-0.635-0.103-0.953-0.619-6.041-0.495-12.357 1.931-14.822 2.285-2.318 4.882-5.094 7.322-7.499l2.01 2.662 2.01 2.662c0 0 0.001 0.001 0.001 0.002l0.22 0.292 3.19 4.223 3.191 4.223c-0.057 0.496-0.098 0.998-0.104 1.51-0.006 0.419 0.002 0.836 0.029 1.253 0.133 2.113 0.653 4.142 1.425 5.396 3.801 4.119 6.952-1.805 8.885-5.484 0.892-1.696 2.542-3.683 4.454-4.745l2.246-0.735c1.012-0.089 2.039 0.154 3.027 0.902 1.081 0.82 1.534 2.207 0.939 3.778-0.002 0.007-0.008 0.013-0.008 0.019-0.332 0.862-0.967 1.781-2.013 2.694C49.478 55.771 49.455 60.507 46.657 63.058zM35.977 49.318c0.173 0.229 0.349 0.463 0.525 0.695l2.44 3.23c-0.367 0.369-0.734 0.648-1.046 0.686-0.281 0.033-0.678-0.302-0.925-0.544C36.373 52.295 36.076 50.654 35.977 49.318zM67.391 46.158L51.83 57.912c0.657-1.766 1.376-3.6 2.566-5.34 2.375-2.18 3.421-5.041 2.497-7.398l0.806 1.066c0.002 0.002 0.003 0.004 0.005 0.006l1.704 2.256 1.29-0.976-1.7-2.25c-0.003-0.004-0.005-0.008-0.008-0.012L45.158 26.954c-0.003-0.003-0.005-0.006-0.008-0.01l-1.701-2.252-1.291 0.977 8.625 11.417 4.459 5.903c-0.199-0.159-0.412-0.313-0.645-0.459 0.01-0.014-0.225-0.112-0.215-0.125l-0.021 0.007c-1.707-0.944-3.393-0.948-4.908-0.504L33.529 20.824c-0.033-0.043-0.068-0.079-0.102-0.121l-1.612-2.146-2.291 1.738 17.218 22.92c-1.052 0.704-1.905 1.499-2.464 2.079L26.895 22.283l-2.296 1.733 2.243 2.97L42.49 47.701c-0.576 0.988-1.046 1.984-1.793 3.21-0.06 0.098-0.141 0.226-0.233 0.368l-19.264-25.5c-0.939-1.244-0.69-3.03 0.553-3.971L39.1 8.705c1.244-0.94 3.031-0.691 3.971 0.553l24.874 32.931C68.884 43.432 68.635 45.218 67.391 46.158z" fill="#1ebbd7" data-fill-palette-color="accent"></path><polygon points="44.616,16.24 44.615,16.238 42.793,13.825 42.789,13.821 41.084,11.563 37.273,14.442 35.724,15.613    35.723,15.614 33.462,17.322 36.081,20.79 36.992,21.997 36.994,21.999 38.701,24.258 42.512,21.379 44.064,20.207 46.323,18.5     " fill="#1ebbd7" data-fill-palette-color="accent"></polygon></g></svg></g></svg></g><g></g></svg></g></svg></g></svg></g></svg></g><defs></defs></svg><rect width="320" height="360" fill="none" stroke="none" visibility="hidden"></rect></g></svg></g></svg>
